<svg id="Layer_1" data-name="Layer 1" xmlns="http://www.w3.org/2000/svg" viewBox="0 0 638.77 104.15"><defs><style>.cls-1{fill:#a90533;}.cls-2{fill:#00a489;}.cls-3{fill:#231f20;}</style></defs><title>pulse-logo</title><path class="cls-1" d="M160.36,308.6c-11.3,0-12.18-8.58-12.18-11.22,0-3.1.83-8.57,8-11.22,7.44-2.73,9-3,14.14-4.65v-1.33a12.09,12.09,0,0,0-.49-4.62c-1-2.95-3.81-4.8-7.65-4.8a9.11,9.11,0,0,0-8,4.35l-.45.84-2.09-1.25.21-.64c1-3.25,5.12-8.76,14.07-8.76,5.82,0,9.61,1.65,12,5.21,1.74,2.83,1.88,6.74,1.88,10.83,0,3.59-.08,7.59-.16,10.82-.05,2.22-.1,4.14-.1,5.3,0,2.95.46,5.23,2.92,5.23a2,2,0,0,0,1.36-.41l.68-.57,1.37,1.56-.46.59c-2.26,2.72-4.41,4.64-8.24,4.64-3.32,0-5.62-1.57-6.39-4.22A14.08,14.08,0,0,1,160.36,308.6Zm10-21.94a48.08,48.08,0,0,0-9.16,3.47,7,7,0,0,0-3.64,6.55c0,2.26.8,6,6.22,6a11.27,11.27,0,0,0,6.58-1.93Z" transform="translate(-76.62 -208.75)"/><path class="cls-1" d="M91.28,308.49a42.17,42.17,0,0,1-13.76-2l-.61-.2v-3c0-4-.09-5.62-.17-6.91l-.12-2.1h2.46l.05.88a8.36,8.36,0,0,0,1.89,5c1.77,2,5.86,3.21,9.65,3.21,8,0,11.65-3,11.65-9.47,0-5.53-3.42-7.84-8.14-11l-.76-.52-5-3.32C81.49,274.47,78,270.79,78,263.44c0-3.6,1.36-15.33,18.84-15.33a85.76,85.76,0,0,1,12.94,1l.75.14,0,.74s-.06,2.3-.06,4.77c0,1.95,0,3.65,0,5.39l.07,1.31H108.4l-.05-.82a7.48,7.48,0,0,0-2-5c-1.68-1.68-5.4-2.47-9.34-2.47-9.26,0-10.35,4.77-10.35,8.34,0,4.92,2.52,6.58,8,10.22l6.32,4.19c5.38,3.59,10.46,7,10.46,15.91C111.44,306.86,97.34,308.49,91.28,308.49Z" transform="translate(-76.62 -208.75)"/><path class="cls-1" d="M132.71,308.75c-6.45,0-10-2.31-11.61-7.46-.66-2-.66-6.08-.66-8.5,0-6.66.06-12,.13-18.21l0-2.91h-5.5V270l.53-.22a17.09,17.09,0,0,0,4.68-2.66,30,30,0,0,0,6.84-8.44l.94-1.59h1.82v9.38h14.21v5.17H129.9v21.9c0,6.54,1.22,10.28,7.41,10.28a12.19,12.19,0,0,0,5.11-1.13l.86-.44L144,304l-.36.41C143.5,304.55,140.29,308.75,132.71,308.75Z" transform="translate(-76.62 -208.75)"/><path class="cls-1" d="M189.45,308.22v-2l.8-.06a5.69,5.69,0,0,0,3.7-1.73c1.29-1.44,1.37-5,1.37-12.11V280.44c0-5.13-.08-7.33-.82-8.44s-2.74-1.36-3.74-1.43l-.35,0-.79-.08v-2.39l.94.08c.17,0,.37,0,.64,0a43.94,43.94,0,0,0,7.54-.79,13.69,13.69,0,0,0,4.4-1.48l.48-.22.82.49v3.31a20.47,20.47,0,0,1,12.09-4c7.52,0,12.43,3.52,13.83,9.89a43.3,43.3,0,0,1,.55,7.46V295c0,6.88.27,8.81,1.56,10a5.89,5.89,0,0,0,3.22,1.16l.82.06v1.95l-2.07-.11c-3-.14-5.57-.29-8.27-.29a91.41,91.41,0,0,0-9.47.35l-1,.09V306.3l.75-.11a6.07,6.07,0,0,0,3.46-1.42c1.35-1.35,1.42-4.56,1.53-7.33,0-.45,0-.94.06-1.44.08-1.56.08-4.84.08-7.23a89.86,89.86,0,0,0-.34-9.54c-.62-5.4-3.44-7.9-8.85-7.9a16.12,16.12,0,0,0-7.81,1.75V295c0,6.88.28,8.81,1.57,10a5.91,5.91,0,0,0,3.23,1.16l.82.06v1.95l-2.22-.12c-2.89-.15-5.39-.29-8-.29a94.26,94.26,0,0,0-9.58.35Z" transform="translate(-76.62 -208.75)"/><path class="cls-1" d="M241.46,308.22v-2l.81-.07a5.56,5.56,0,0,0,3.71-1.71c1.3-1.44,1.36-5,1.36-12.07V271.68H241.9v-2.34l.55-.23a20.64,20.64,0,0,0,4.89-2.58,73.84,73.84,0,0,1,.62-11.06c1.65-8.61,7.28-13,16.73-13a17,17,0,0,1,10.18,3.18l.32.26.13.88-4.14,5.75h-1l-.23-.52c-1.58-3.54-3.88-4.92-7-4.92a6.18,6.18,0,0,0-4.2,1.5c-1.81,1.8-2.11,4.49-2.11,9.8v8.06h9.29v5.17h-9.29v23.13c0,5.51.18,8.19.9,9.26,1.17,1.75,4.71,1.89,5.75,1.89h.88v2.22l-.92-.05c-4.59-.24-8-.35-10.48-.35-3.1,0-6.61,0-10.34.35Z" transform="translate(-76.62 -208.75)"/><path class="cls-1" d="M289.43,308.93c-12.73,0-20.33-7.92-20.33-21.2,0-10.32,5.55-22.36,21.21-22.36,12.73,0,20.34,7.93,20.34,21.21C310.65,296.89,305.09,308.93,289.43,308.93Zm.53-38.74a8.73,8.73,0,0,0-5.9,1.9c-3.35,2.81-5,7.92-5,15.19,0,2.81.52,16.84,10.79,16.84a8.84,8.84,0,0,0,5.91-1.9c3.35-2.81,5-7.92,5-15.19C300.75,284.21,300.23,270.19,290,270.19Z" transform="translate(-76.62 -208.75)"/><path class="cls-1" d="M314.67,308.22v-2.1l.82-.07a5.53,5.53,0,0,0,3.7-1.72c1.3-1.44,1.35-4.87,1.35-12V280.44c0-5.13-.07-7.33-.81-8.44s-2.73-1.36-3.74-1.43l-.33,0-.81-.08v-2.53l.9,0,.68,0a43.59,43.59,0,0,0,7.54-.79,20.48,20.48,0,0,0,4.47-1.19l.48-.22.74.39v3.62a13.81,13.81,0,0,1,9.64-3.88,10.13,10.13,0,0,1,7,2.32l.28.27v1.31l-3.51,6.44h-1.69l-.26-.4a7.45,7.45,0,0,0-6.72-3.36,7.85,7.85,0,0,0-4.55,1.33v21c0,5.51.18,8.11.9,9.18,1.18,1.74,4.71,1.88,5.76,1.88h.87v2.31l-.91-.05c-4.59-.24-8-.35-10.48-.35-3.1,0-6.61,0-10.34.35Z" transform="translate(-76.62 -208.75)"/><path class="cls-1" d="M380.23,308.81l-1.11-.37v-3.51a19.8,19.8,0,0,1-11.65,3.91c-11.45,0-18.86-7.94-18.86-20.24a27.45,27.45,0,0,1,2.28-11.23c3.49-7.57,10.75-11.91,19.9-11.91a40.7,40.7,0,0,1,8.15.8V257.4c0-5.2-.07-8-.82-9.09s-2.68-1.36-3.66-1.43l-.34,0-.79-.08.18-1.87h.88a87.17,87.17,0,0,0,8.94-1.17,26.68,26.68,0,0,0,4.12-.95l.42-.15.71.43,0,.41c-.28,3.44-.32,10.79-.32,16.29v34c0,5.08.07,8.23.81,9.24.87,1.24,2.68,1.45,3.67,1.53l.35,0,.78,0v2.24H393a62.89,62.89,0,0,0-8.1.86,20.54,20.54,0,0,0-4.25,1Zm-9.62-38.36c-8.13,0-12.1,5.56-12.1,17,0,4.63,1.31,15.42,13.42,15.42h.39a12.93,12.93,0,0,0,6.62-1.7V273.24C378.26,272.57,375.73,270.46,370.61,270.46Z" transform="translate(-76.62 -208.75)"/><path class="cls-2" d="M500.57,263.69l-1.25-1.39-3.61-.14-1.79,0c-12-.84-12-.82-19.44-1.43-10.35-.54-21-1.11-29.51-1.58,3.66-.28,7.49-.57,11-.86s6.7-.57,9.24-.85a33.85,33.85,0,0,0,5.41-.85,3.35,3.35,0,0,0,.84-.4,1.75,1.75,0,0,0,.8-1.44,1.79,1.79,0,0,0-.95-1.54,14.66,14.66,0,0,0-4.55-1.09c-2.7-.37-6.31-.69-10-.94a37.86,37.86,0,0,0,8-2.17,2.92,2.92,0,0,0,.71-.48,1.81,1.81,0,0,0,.57-1.28,1.83,1.83,0,0,0-1-1.59A6.91,6.91,0,0,0,463,245c-.82-.14-1.84-.27-3-.38l7.32-.74c1.43-.14,1.64-2.75.05-3s-19.06-2.56-19.06-2.56l4.34-.86c3.35-.66,6.76-1.31,9.47-1.8s4.84-.82,5-.8h.58l.23-.06a1.4,1.4,0,0,0,.35-.17,1.48,1.48,0,0,0,.68-1.25,1.5,1.5,0,0,0-.6-1.2,1.42,1.42,0,0,0-.53-.25,1,1,0,0,0-.29,0h0c-.23,0-6.81-.06-15.5-.5a46.17,46.17,0,0,0,8.94-2.64,10.69,10.69,0,0,0,2.11-1.19,2.48,2.48,0,0,0,1.13-1.94,4,4,0,0,0-.32-1.34c-.31-.77-.94-1.05-2.34-1.26s-3.94-.36-5.3-.36c-.77,0-2,0-2.55,0h-2.3c.05-3,0-8,0-10.29,0-1.05.3-3.6-1.79-3.6a1.9,1.9,0,0,0-1.61,2c.05,1.91-.05,15.05-.05,15.05,1.53,0,4.31,0,6,0,2.65,0,5.14-.09,5.14-.09.43,0,1.25,0,1.15.23-2.82,1.28-7.79,2.33-11.44,3-1.83.35-3.48.64-4.71.89a15.9,15.9,0,0,0-1.55.38,3.69,3.69,0,0,0-.66.27,2.08,2.08,0,0,0-.46.35,1.58,1.58,0,0,0,.3,2.45,5,5,0,0,0,2.06.54c.86.1,2,.2,3.62.3,1.8.11,3.55.21,5.21.29-6.92,1.35-12.22,2.44-13.73,2.75a1.52,1.52,0,0,0,.1,3c1.62.24,15.32,2.06,15.32,2.06l-1,.11c-3.43.36-6.85.72-9.43,1-1.29.14-2.37.28-3.13.38l-.92.13-.34.07-.26.08a1.58,1.58,0,0,0-.32.17,1.47,1.47,0,0,0-.64,1.23,1.51,1.51,0,0,0,.68,1.25c.48.25.59.24.68.24a.2.2,0,0,1,.1,0H440c1.38,0,7.52.05,13.28.3,2.13.09,4.22.22,6,.37-2.21.51-4.91,1-7.41,1.43s-4.61.76-6.28,1c-.83.14-1.52.26-2,.36l-.67.15a2.74,2.74,0,0,0-.37.14,1.79,1.79,0,0,0-.36.23,1.51,1.51,0,0,0-.55,1.17,1.53,1.53,0,0,0,.64,1.24,1.61,1.61,0,0,0,.65.27,4.72,4.72,0,0,0,.88.06c4,0,10.79.31,16.47.79l2.55.23-1.15.11c-6.26.59-14.83,1.2-21.84,1.76-3.51.28-6.62.54-8.87.78-1.13.12-2,.23-2.72.34a7.87,7.87,0,0,0-.88.19,2.28,2.28,0,0,0-.48.19,1.54,1.54,0,0,0-.35,2.51,2,2,0,0,0,1.11.49c.27,0,.57.08,1,.11,4.9.41,28.91,1.69,50.12,2.79-13.64.59-27.33,1.26-33.25,1.72-4.29.33-9.33.69-13.3,1-2,.16-3.71.31-5,.44-.62.06-1.12.13-1.51.19a4.46,4.46,0,0,0-.54.11,1.74,1.74,0,0,0-.38.14,1.64,1.64,0,0,0-.39.27,1.52,1.52,0,0,0-.47,1.1,1.55,1.55,0,0,0,.61,1.22,1.77,1.77,0,0,0,.93.34c.19,0,.38,0,.62.05,7.05.37,17.57.95,26.32,1.44l9.43.54a30.41,30.41,0,0,0-3.82,2.15,8.69,8.69,0,0,0-1.52,1.29,3,3,0,0,0-.85,2c0,7.85.67,20.07.75,21.46,0,0,0,.08,0,.12a3,3,0,0,0,1.57,2.35,17.88,17.88,0,0,0,5.65,2l.07,0h.05l4.79.67c-4.22.06-9,.1-14.13.1-10.41,0-17,.11-20.93.29-2,.09-3.33.19-4.25.32a7.12,7.12,0,0,0-1.17.25,2.13,2.13,0,0,0-.62.32,1.61,1.61,0,0,0,0,2.63,4.75,4.75,0,0,0,1.65.64c6.2,1.54,10.78,1.54,26.58,3.78l.21,0a1.5,1.5,0,0,0,.21-3c-7.86-1.11-13-1.68-16.8-2.15,3.75-.07,8.68-.12,15.08-.12,11.15,0,20.25-.17,26.56-.35,3.16-.09,5.62-.18,7.3-.25l1.92-.09.52,0,.18,0,.14,0a1.34,1.34,0,0,0,.21-.05,1.36,1.36,0,0,0,.33-.16,1.49,1.49,0,0,0-.06-2.56,1.35,1.35,0,0,0-.49-.18,1.12,1.12,0,0,0-.3,0h-.07c-2.85,0-9.55-.74-15.43-1.49-5.55-.7-10.42-1.41-11-1.49a15.23,15.23,0,0,1-4.59-1.6l-.22-.16c-.08-1.51-.73-13.46-.74-21.12a6.94,6.94,0,0,1,1.64-1.3,43.66,43.66,0,0,1,5.37-2.7c1.45-.62,2.61-1.07,3-1.21l.11,0a1.31,1.31,0,0,0,.29-.13,1.42,1.42,0,0,0,.72-1.27,1.45,1.45,0,0,0-.78-1.32c-.37-.16-.43-.16-.46-.16h0c-.29,0-.65-.05-1.53-.11-3.27-.2-11.79-.69-20.8-1.19,13.06-1,43.43-2.83,47.82-2.9a25.2,25.2,0,0,0,4.51-.44C498.76,265.21,500.43,265.49,500.57,263.69Z" transform="translate(-76.62 -208.75)"/><path class="cls-3" d="M409,305.64a4.3,4.3,0,1,1-4.28-4.18A4.2,4.2,0,0,1,409,305.64Zm-7.52,0a3.24,3.24,0,0,0,3.26,3.34,3.2,3.2,0,0,0,3.19-3.31,3.23,3.23,0,1,0-6.45,0Zm2.58,2.19h-1v-4.18a8.47,8.47,0,0,1,1.61-.13,2.6,2.6,0,0,1,1.45.31,1.16,1.16,0,0,1,.41.92,1.07,1.07,0,0,1-.87,1v.05a1.24,1.24,0,0,1,.77,1,3.16,3.16,0,0,0,.31,1h-1a3.6,3.6,0,0,1-.33-1c-.08-.46-.33-.66-.87-.66H404Zm0-2.37h.46c.54,0,1-.18,1-.61s-.28-.64-.89-.64a2.28,2.28,0,0,0-.54.05Z" transform="translate(-76.62 -208.75)"/><path class="cls-3" d="M522.92,261h15.84c10.3,0,17.93,3.6,17.93,14.54,0,10.44-7.78,15.27-17.93,15.27h-7.49v17.28h-8.35Zm15.19,23.11c7,0,10.37-2.81,10.37-8.57s-3.53-7.85-10.37-7.85h-6.84v16.42Z" transform="translate(-76.62 -208.75)"/><path class="cls-3" d="M565.33,261h8.35v27.07c0,10.22,3.81,13.61,9.5,13.61s9.79-3.38,9.79-13.61V261h8V287.4c0,15.48-6.84,21.53-17.79,21.53s-17.86-6-17.86-21.53Z" transform="translate(-76.62 -208.75)"/><path class="cls-3" d="M612.71,261h8.35v40h19.59v7.06H612.71Z" transform="translate(-76.62 -208.75)"/><path class="cls-3" d="M648.71,296.33c3.38,3.17,7.92,5.33,12.24,5.33,5.33,0,8.21-2.38,8.21-6,0-3.89-3-5.11-7.27-6.91l-6.48-2.81c-4.61-1.94-9.5-5.62-9.5-12.53,0-7.49,6.62-13.25,15.84-13.25a20.78,20.78,0,0,1,14.47,6L672,271.42a15.34,15.34,0,0,0-10.22-4c-4.46,0-7.41,2.09-7.41,5.54,0,3.67,3.6,5,7.49,6.62l6.41,2.66c5.55,2.38,9.51,5.9,9.51,12.74,0,7.63-6.34,14-16.92,14a24.4,24.4,0,0,1-17-6.91Z" transform="translate(-76.62 -208.75)"/><path class="cls-3" d="M686.29,261h28.37V268h-20v12h16.92v7.06H694.65V301h20.74v7.06H686.29Z" transform="translate(-76.62 -208.75)"/></svg>